<?xml version="1.0" encoding="UTF-8" standalone="no"?>
<svg
   xmlns="http://www.w3.org/2000/svg"
   version="1.1"
   x="0px"
   y="0px"
   width="100px"
   height="100px"
   viewBox="0 0 100 100"
   style="enable-background:new 0 0 100 100;">
<g
   transform="matrix(0.19531181,0,0,0.19531259,57.186885,24.033159)"
   style="stroke-width:5.12001"><path
     style="fill:#009dd9;stroke-width:5.12001"
     d="m 184.05296,-87.898714 c 46.86795,46.857 46.86795,122.836 0,169.704 L 85.173864,180.69529 c -13.312,13.312 -28.965,22.832 -45.641,28.582 -25.364,8.743 -53.068,8.743 -78.432,0 -16.677,-5.75 -32.329,-15.27 -45.641,-28.582 -13.301,-13.312 -22.832004,-28.965 -28.582004,-45.641 l 2.104,-2.104 c -2.104,2.104 37.087004,-37.849004 37.087004,-37.849004 l 37.137,37.849004 c 20.458,20.469 53.755,20.469 74.224,0 l 2.104,-2.104 96.785996,-96.786004 c 20.458,-20.458 20.458,-53.755 0,-74.224 -20.469,-20.458 -53.765996,-20.458 -74.223996,0 l -96.786,96.786 -39.217,15.948 -39.216004,-15.949 c 5.75,-16.665 15.270004,-32.329 28.582004,-45.641 l 98.89,-98.879 c 46.868,-46.867996 122.846996,-46.867996 169.704096,0 z" /><path
     style="fill:#f06116;stroke-width:5.12001"
     d="m -34.691136,56.621286 c 16.665,5.75 32.3180003,15.281 45.63,28.593 13.312,13.301 22.843,28.965004 28.593,45.630004 l -2.104,2.104 c -20.469,20.469 -53.766,20.469 -74.224,0 -20.469,-20.458 -53.766,-20.458 -74.224004,0 l -2.104,2.104 -96.786,96.786 c -20.469,20.469 -20.469,53.766 0,74.224 20.458,20.469 53.755,20.469 74.224,0 l 96.786004,-96.786 c 25.364,8.743 53.068,8.743 78.432,0 -5.75,16.677 -15.281,32.329 -28.593,45.641 l -98.879,98.89 c -46.868004,46.857 -122.847004,46.857 -169.715004,0 -46.857,-46.868 -46.857,-122.847 0,-169.715 l 98.89,-98.879004 c 13.312,-13.312 28.965,-22.843 45.641,-28.593 25.365004,-8.741 53.069004,-8.741 78.433004,10e-4 z" /></g></svg>
